<svg width="213" height="550" viewBox="0 0 213 550" fill="none" xmlns="http://www.w3.org/2000/svg">
<g clip-path="url(#clip0_1_2)">
<rect x="128.5" y="378" width="41" height="32" fill="#D9D9D9" stroke="black"/>
<rect x="178" y="271.5" width="2" height="17" transform="rotate(90 178 271.5)" fill="#090000"/>
<rect x="198.5" y="269" width="7" height="24" rx="2.5" transform="rotate(90 198.5 269)" fill="#D9D9D9" stroke="#E43E3E"/>
<rect x="180" y="214.5" width="2" height="17" transform="rotate(-180 180 214.5)" fill="#090000"/>
<rect x="182.5" y="235" width="7" height="24" rx="2.5" transform="rotate(-180 182.5 235)" fill="#D9D9D9" stroke="#E43E3E"/>
<rect x="178" y="110.5" width="2" height="17" fill="#090000"/>
<rect x="175.5" y="90" width="7" height="24" rx="2.5" fill="#D9D9D9" stroke="#E43E3E"/>
<mask id="path-8-inside-1_1_2" fill="white">
<path d="M157 187.5H193V199.5H157V187.5Z"/>
</mask>
<path d="M157 187.5H193V199.5H157V187.5Z" fill="#1A93F2"/>
<path d="M193 187.5H194V186.5H193V187.5ZM193 199.5V200.5H194V199.5H193ZM157 187.5V188.5H193V187.5V186.5H157V187.5ZM193 187.5H192V199.5H193H194V187.5H193ZM193 199.5V198.5H157V199.5V200.5H193V199.5Z" fill="black" mask="url(#path-8-inside-1_1_2)"/>
<mask id="path-10-inside-2_1_2" fill="white">
<path d="M157 121.5H193V133.5H157V121.5Z"/>
</mask>
<path d="M157 121.5H193V133.5H157V121.5Z" fill="#F92E32"/>
<path d="M193 121.5H194V120.5H193V121.5ZM193 133.5V134.5H194V133.5H193ZM157 121.5V122.5H193V121.5V120.5H157V121.5ZM193 121.5H192V133.5H193H194V121.5H193ZM193 133.5V132.5H157V133.5V134.5H193V133.5Z" fill="black" mask="url(#path-10-inside-2_1_2)"/>
<path d="M144.582 315.316C145.235 317.803 148.765 317.803 149.418 315.316L158.52 280.635C158.935 279.05 157.74 277.5 156.102 277.5H137.898C136.26 277.5 135.065 279.05 135.48 280.635L144.582 315.316Z" fill="#D9D9D9" stroke="black"/>
<rect x="128.5" y="265" width="36" height="14" rx="2.5" fill="#D9D9D9" stroke="black"/>
<rect x="12.7857" y="376.835" width="90.4286" height="106.429" fill="url(#paint0_linear_1_2)" stroke="black"/>
<path d="M26.4701 358.322C43.9257 348.204 72.1921 348.185 89.6047 358.279C108.174 369.043 106.996 384.753 89.5304 394.878C72.0746 404.997 43.8075 405.015 26.3949 394.921C8.39198 384.485 9.00914 368.444 26.4701 358.322Z" fill="url(#paint1_linear_1_2)" stroke="black"/>
<path d="M26.4701 465.751C43.9257 455.632 72.1921 455.614 89.6047 465.707C108.174 476.472 106.996 492.181 89.5304 502.306C72.0746 512.425 43.8075 512.443 26.3949 502.349C8.39198 491.913 9.00914 475.873 26.4701 465.751Z" fill="url(#paint2_radial_1_2)" stroke="black"/>
<path d="M28.7821 468.339C44.749 459.432 70.6042 459.416 86.5315 468.301C103.518 477.776 102.441 491.602 86.4632 500.515C70.4963 509.422 44.6411 509.438 28.7139 500.553C12.2462 491.367 12.81 477.249 28.7821 468.339Z" fill="url(#paint3_radial_1_2)" stroke="black"/>
<mask id="path-18-inside-3_1_2" fill="white">
<path d="M137 65.5H157V264.5H137V65.5Z"/>
</mask>
<path d="M137 65.5H157V264.5H137V65.5Z" fill="url(#paint4_linear_1_2)"/>
<path d="M157 264.5V265.5H158V264.5H157ZM137 264.5H136V265.5H137V264.5ZM157 65.5H156V264.5H157H158V65.5H157ZM157 264.5V263.5H137V264.5V265.5H157V264.5ZM137 264.5H138V65.5H137H136V264.5H137Z" fill="black" mask="url(#path-18-inside-3_1_2)"/>
<rect x="29" y="221.5" width="2" height="17" transform="rotate(-90 29 221.5)" fill="#090000"/>
<rect x="8.5" y="224" width="7" height="24" rx="2.5" transform="rotate(-90 8.5 224)" fill="#D9D9D9" stroke="#E43E3E"/>
<rect x="90.6463" y="365.003" width="2" height="17" transform="rotate(55 90.6463 365.003)" fill="#090000"/>
<rect x="106.005" y="351.196" width="7" height="24" rx="2.5" transform="rotate(55 106.005 351.196)" fill="#D9D9D9" stroke="#E43E3E"/>
<rect x="90.6463" y="365.003" width="2" height="17" transform="rotate(55 90.6463 365.003)" fill="#090000"/>
<rect x="106.005" y="351.196" width="7" height="24" rx="2.5" transform="rotate(55 106.005 351.196)" fill="#D9D9D9" stroke="#E43E3E"/>
<path d="M56 371C58.7141 371 61.1486 371.441 62.8857 372.136C63.7555 372.484 64.4254 372.886 64.8701 373.307C65.3139 373.726 65.5 374.129 65.5 374.5C65.5 374.871 65.3139 375.274 64.8701 375.693C64.4254 376.114 63.7555 376.516 62.8857 376.864C61.1486 377.559 58.7141 378 56 378C53.2859 378 50.8514 377.559 49.1143 376.864C48.2445 376.516 47.5746 376.114 47.1299 375.693C46.6861 375.274 46.5 374.871 46.5 374.5C46.5 374.129 46.6861 373.726 47.1299 373.307C47.5746 372.886 48.2445 372.484 49.1143 372.136C50.8514 371.441 53.2859 371 56 371Z" fill="#EE7A7A" stroke="black"/>
<mask id="path-27-inside-4_1_2" fill="white">
<path d="M46 67.5H66V374.5H46V67.5Z"/>
</mask>
<path d="M46 67.5H66V374.5H46V67.5Z" fill="url(#paint5_linear_1_2)"/>
<path d="M46 67.5V66.5H45V67.5H46ZM66 67.5H67V66.5H66V67.5ZM46 67.5V68.5H66V67.5V66.5H46V67.5ZM66 67.5H65V374.5H66H67V67.5H66ZM46 374.5H47V67.5H46H45V374.5H46Z" fill="black" mask="url(#path-27-inside-4_1_2)"/>
<mask id="path-29-inside-5_1_2" fill="white">
<path d="M46 66.5C46 55.4543 54.9543 46.5 66 46.5H137C148.046 46.5 157 55.4543 157 66.5V68.5H46V66.5Z"/>
</mask>
<path d="M46 66.5C46 55.4543 54.9543 46.5 66 46.5H137C148.046 46.5 157 55.4543 157 66.5V68.5H46V66.5Z" fill="#85D9EB"/>
<path d="M45 66.5C45 54.902 54.402 45.5 66 45.5H137C148.598 45.5 158 54.902 158 66.5H156C156 56.0066 147.493 47.5 137 47.5H66C55.5066 47.5 47 56.0066 47 66.5H45ZM157 68.5H46H157ZM45 68.5V66.5C45 54.902 54.402 45.5 66 45.5V47.5C55.5066 47.5 47 56.0066 47 66.5V68.5H45ZM137 45.5C148.598 45.5 158 54.902 158 66.5V68.5H156V66.5C156 56.0066 147.493 47.5 137 47.5V45.5Z" fill="black" mask="url(#path-29-inside-5_1_2)"/>
<line x1="65" y1="68" x2="137" y2="68" stroke="black"/>
<rect x="128.5" y="111" width="38" height="105" rx="14.5" fill="url(#paint6_linear_1_2)" stroke="black"/>
<rect x="30.683" y="363.683" width="3" height="9" transform="rotate(-30 30.683 363.683)" fill="#D9D9D9" stroke="black"/>
<path d="M25 337C33.0242 337 39.5 343.284 39.5 351C39.5 358.716 33.0242 365 25 365C16.9758 365 10.5 358.716 10.5 351C10.5 343.284 16.9758 337 25 337Z" fill="#D9D9D9" stroke="black"/>
<mask id="path-35-inside-6_1_2" fill="white">
<path d="M37.8539 349.131C37.5278 347.057 36.6643 345.096 35.343 343.428C34.0217 341.759 32.2851 340.437 30.293 339.583C28.3009 338.729 26.1173 338.371 23.9435 338.541C21.7696 338.712 19.6753 339.405 17.8534 340.558C16.0314 341.711 14.5405 343.286 13.5178 345.139C12.495 346.991 11.9735 349.061 12.001 351.158C12.0286 353.255 12.6045 355.312 13.6756 357.139C14.7467 358.965 16.2786 360.504 18.1302 361.612L25 351L37.8539 349.131Z"/>
</mask>
<path d="M37.8539 349.131C37.5278 347.057 36.6643 345.096 35.343 343.428C34.0217 341.759 32.2851 340.437 30.293 339.583C28.3009 338.729 26.1173 338.371 23.9435 338.541C21.7696 338.712 19.6753 339.405 17.8534 340.558C16.0314 341.711 14.5405 343.286 13.5178 345.139C12.495 346.991 11.9735 349.061 12.001 351.158C12.0286 353.255 12.6045 355.312 13.6756 357.139C14.7467 358.965 16.2786 360.504 18.1302 361.612L25 351L37.8539 349.131Z" fill="#D9D9D9" stroke="black" stroke-width="2" mask="url(#path-35-inside-6_1_2)"/>
<path d="M15.8654 345.5L18.5514 350.611L21.6343 345.729L15.8654 345.5ZM25.3654 351.5L25.6324 351.077L19.9371 347.48L19.6701 347.903L19.4031 348.326L25.0984 351.923L25.3654 351.5Z" fill="black"/>
<rect x="117.834" y="486.505" width="6.19914" height="4" transform="rotate(8.5 117.834 486.505)" fill="#D9D9D9" stroke="black"/>
<mask id="path-38-inside-7_1_2" fill="white">
<path d="M16 441.5H100V484.5H16V441.5Z"/>
</mask>
<path d="M16 441.5H100V484.5H16V441.5Z" fill="url(#paint7_linear_1_2)"/>
<path d="M16 441.5V440.5H15V441.5H16ZM100 441.5H101V440.5H100V441.5ZM16 441.5V442.5H100V441.5V440.5H16V441.5ZM100 441.5H99V484.5H100H101V441.5H100ZM16 484.5H17V441.5H16H15V484.5H16Z" fill="black" mask="url(#path-38-inside-7_1_2)"/>
<mask id="path-40-inside-8_1_2" fill="white">
<path d="M38.5324 476.577C39.2037 472.085 43.3892 468.988 47.881 469.659L104.456 478.114C108.947 478.786 112.044 482.971 111.373 487.463C110.702 491.955 106.516 495.052 102.025 494.38L45.45 485.925C40.9582 485.254 37.8611 481.068 38.5324 476.577Z"/>
</mask>
<path d="M34.5764 475.985C35.5742 469.309 41.7956 464.705 48.4722 465.703L101.091 473.567C107.767 474.565 112.371 480.786 111.373 487.463C111.718 485.156 108.356 482.742 103.864 482.07L47.2897 473.615C44.9828 473.27 42.8333 474.861 42.4885 477.168L34.5764 475.985ZM111.373 487.463C110.375 494.139 104.154 498.743 97.4773 497.745L44.8588 489.881C38.1821 488.883 33.5785 482.662 34.5764 475.985L42.4885 477.168C42.1437 479.475 43.7343 481.624 46.0412 481.969L102.616 490.424C107.108 491.096 111.028 489.77 111.373 487.463ZM44.8588 489.881C38.1821 488.883 33.5785 482.662 34.5764 475.985C35.5742 469.309 41.7956 464.705 48.4722 465.703L47.2897 473.615C44.9828 473.27 42.8333 474.861 42.4885 477.168C42.1437 479.475 43.7343 481.624 46.0412 481.969L44.8588 489.881ZM112.589 479.33L110.158 495.596L112.589 479.33Z" fill="black" mask="url(#path-40-inside-8_1_2)"/>
<path d="M114.126 477.922C116.584 478.289 118.279 480.579 117.912 483.037L116.33 493.618C115.963 496.076 113.672 497.771 111.215 497.404L95.227 495.014L98.1386 475.532L114.126 477.922Z" fill="#D9D9D9" stroke="black"/>
<path d="M28.7821 425.114C44.749 416.207 70.6042 416.191 86.5315 425.076C95.0495 429.827 99.3537 435.464 99.3812 441.109C99.4086 446.753 95.1605 452.439 86.4632 457.29C70.4963 466.197 44.6411 466.213 28.7139 457.328C12.2462 448.142 12.81 434.024 28.7821 425.114Z" fill="url(#paint8_radial_1_2)" stroke="black"/>
<path d="M134.204 369.981C142.119 365.566 154.936 365.558 162.83 369.962C167.066 372.325 169.193 375.12 169.207 377.91C169.22 380.699 167.122 383.518 162.796 385.931C154.881 390.347 142.064 390.354 134.17 385.95C126.006 381.396 126.283 374.4 134.204 369.981Z" fill="url(#paint9_radial_1_2)" stroke="black"/>
<path d="M149 425C154.741 425 159.914 426.109 163.634 427.88C167.39 429.669 169.5 432.043 169.5 434.5C169.5 436.957 167.39 439.331 163.634 441.12C159.914 442.891 154.741 444 149 444C143.259 444 138.086 442.891 134.366 441.12C130.61 439.331 128.5 436.957 128.5 434.5C128.5 432.043 130.61 429.669 134.366 427.88C138.086 426.109 143.259 425 149 425Z" fill="url(#paint10_linear_1_2)" stroke="black"/>
<mask id="path-46-inside-9_1_2" fill="white">
<path d="M128 406.5H170V433.5H128V406.5Z"/>
</mask>
<path d="M128 406.5H170V433.5H128V406.5Z" fill="url(#paint11_linear_1_2)"/>
<path d="M128 406.5V405.5H127V406.5H128ZM170 406.5H171V405.5H170V406.5ZM128 406.5V407.5H170V406.5V405.5H128V406.5ZM170 406.5H169V433.5H170H171V406.5H170ZM128 433.5H129V406.5H128H127V433.5H128Z" fill="black" mask="url(#path-46-inside-9_1_2)"/>
<path d="M134.204 399.981C142.119 395.566 154.936 395.558 162.83 399.962C167.066 402.325 169.193 405.12 169.207 407.91C169.22 410.699 167.122 413.518 162.796 415.931C154.881 420.347 142.064 420.354 134.17 415.95C126.006 411.396 126.283 404.4 134.204 399.981Z" fill="url(#paint12_radial_1_2)" stroke="black"/>
<path d="M142.153 323.75C142.219 323.75 142.316 323.784 142.445 323.906C142.574 324.027 142.711 324.214 142.853 324.461C143.136 324.954 143.411 325.646 143.664 326.419C144.165 327.951 144.561 329.757 144.749 330.851C144.745 331.895 144.369 332.747 143.854 333.338C143.332 333.937 142.684 334.25 142.153 334.25C141.577 334.25 140.857 334.08 140.282 333.539C139.716 333.006 139.256 332.08 139.25 330.498C139.549 329.395 140.021 327.686 140.568 326.247C140.845 325.519 141.137 324.874 141.431 324.414C141.578 324.184 141.718 324.011 141.849 323.898C141.98 323.785 142.081 323.75 142.153 323.75Z" fill="url(#paint13_linear_1_2)" stroke="black" stroke-width="0.5"/>
<path d="M150.153 333.75C150.219 333.75 150.316 333.784 150.445 333.906C150.574 334.027 150.711 334.214 150.853 334.461C151.136 334.954 151.411 335.646 151.664 336.419C152.165 337.951 152.561 339.757 152.749 340.851C152.745 341.895 152.369 342.747 151.854 343.338C151.332 343.937 150.684 344.25 150.153 344.25C149.577 344.25 148.857 344.08 148.282 343.539C147.716 343.006 147.256 342.08 147.25 340.498C147.549 339.395 148.021 337.686 148.568 336.247C148.845 335.519 149.137 334.874 149.431 334.414C149.578 334.184 149.718 334.011 149.849 333.898C149.98 333.785 150.081 333.75 150.153 333.75Z" fill="url(#paint14_linear_1_2)" stroke="black" stroke-width="0.5"/>
<path d="M143.153 348.75C143.219 348.75 143.316 348.784 143.445 348.906C143.574 349.027 143.711 349.214 143.853 349.461C144.136 349.954 144.411 350.646 144.664 351.419C145.165 352.951 145.561 354.757 145.749 355.851C145.745 356.895 145.369 357.747 144.854 358.338C144.332 358.937 143.684 359.25 143.153 359.25C142.577 359.25 141.857 359.08 141.282 358.539C140.716 358.006 140.256 357.08 140.25 355.498C140.549 354.395 141.021 352.686 141.568 351.247C141.845 350.519 142.137 349.874 142.431 349.414C142.578 349.184 142.718 349.011 142.849 348.898C142.98 348.785 143.081 348.75 143.153 348.75Z" fill="url(#paint15_linear_1_2)" stroke="black" stroke-width="0.5"/>
<path d="M150.153 360.75C150.219 360.75 150.316 360.784 150.445 360.906C150.574 361.027 150.711 361.214 150.853 361.461C151.136 361.954 151.411 362.646 151.664 363.419C152.165 364.951 152.561 366.757 152.749 367.851C152.745 368.895 152.369 369.747 151.854 370.338C151.332 370.937 150.684 371.25 150.153 371.25C149.577 371.25 148.857 371.08 148.282 370.539C147.716 370.006 147.256 369.08 147.25 367.498C147.549 366.395 148.021 364.686 148.568 363.247C148.845 362.519 149.137 361.874 149.431 361.414C149.578 361.184 149.718 361.011 149.849 360.898C149.98 360.785 150.081 360.75 150.153 360.75Z" fill="url(#paint16_linear_1_2)" stroke="black" stroke-width="0.5"/>
<path d="M166.12 445.216C168.921 445.216 174.584 444.906 178.028 443.964C181.34 443.059 184.937 443.649 187.288 443.413C188.24 443.318 188.707 443.333 187.394 443.333C179.305 443.333 175.564 444.736 172.562 445.372C171.114 445.679 169.269 446.158 169.486 446.158C178.986 446.158 181.175 444.906 188.303 444.746C191.337 444.678 182.766 445.527 181.187 445.843C180.545 445.971 182.903 446.784 183.691 447.019C183.769 447.043 182.926 447.1 182.293 447.177C181.66 447.255 181.194 447.41 182.119 447.49C183.044 447.57 185.374 447.57 186.186 447.493C188.072 447.312 177.465 447.721 170.999 448.274C170.314 448.333 170.818 448.973 170.748 449.291C170.311 451.254 165.668 449.453 161.12 448.672C159.415 448.379 156.912 448.512 156.175 448.512C153.421 448.512 162.189 450.079 162.744 450.781C164.036 452.412 159.689 453.686 159.451 454.469C159.243 455.156 164.044 455.103 169.225 454.947C170.839 454.899 170.366 454.481 169.738 454.166C168.363 453.476 166.289 452.909 165.882 452.438C165.326 451.795 169.669 452.278 170.802 452.2C171.934 452.123 171.157 451.967 170.99 451.81C169.807 450.693 175.055 451.026 178.654 450.633C180.227 450.461 182.55 449.934 183.439 449.849C183.789 449.816 182.446 450.706 181.815 451.176C180.065 452.483 187.601 450.866 189.957 450.788C190.605 450.71 190.139 450.555 189.665 450.397C189.192 450.24 188.726 450.084 188.246 449.924" stroke="#2BE831" stroke-width="2" stroke-linecap="round"/>
<path d="M170.357 447.1C171.604 446.944 174.424 446.007 178.974 444.282C179.892 443.934 176.646 442.707 175.385 442.239C174.024 441.734 180.53 440.358 184.143 439.261C185.179 438.947 184.339 438.475 183.395 438.315C182.451 438.155 181.363 438.155 181.502 438.155C181.641 438.155 183.039 438.155 183.527 438.233C183.548 438.466 182.446 438.626 182.281 438.626C182.738 438.626 184.292 438.626 185.892 438.626" stroke="#2BE831" stroke-width="2" stroke-linecap="round"/>
<path d="M164.748 451.743C165.058 451.435 165.626 450.451 165.938 449.959C166.288 449.405 164.236 451.118 163.404 451.74C163.227 451.873 163.144 452.05 163.194 452.13C163.551 452.699 164.436 451.796 164.643 451.743C164.89 451.68 164.439 452.517 164.385 452.932C164.367 453.077 164.845 452.936 164.517 452.884C164.189 452.831 163.163 452.831 162.84 452.831C162.517 452.831 162.927 452.831 163.138 452.933C163.474 453.096 163.196 453.504 163.347 453.581C165.421 454.645 166.87 453.297 166.976 453.297C166.826 453.297 166.262 453.297 165.895 453.271C165.527 453.246 165.373 453.194 165.215 453.142" stroke="#2BE831" stroke-width="2" stroke-linecap="round"/>
<path d="M171.742 448.634C172.926 448.79 175.102 448.585 177.094 448.351C179.098 448.115 180.547 447.651 180.73 447.573C181.801 447.119 178.636 447.907 174.711 448.838C173.663 449.15 173.195 449.307 172.884 449.411C172.829 449.463 172.982 449.514 173.141 449.567" stroke="#2BE831" stroke-width="2" stroke-linecap="round"/>
<path d="M166.8 450.816C166.998 450.875 167.799 451.04 168.052 451.07C168.27 451.096 167.236 451.088 166.597 451.146C165.957 451.205 165.291 451.31 164.919 451.364C164.546 451.418 164.488 451.418 164.592 451.412C164.696 451.407 164.965 451.395 165.477 451.319C165.99 451.243 166.737 451.102 167.052 450.989C167.367 450.876 167.227 450.794 167.038 450.7C166.849 450.605 166.615 450.5 166.215 450.387C165.814 450.275 165.253 450.158 164.865 450.098C164.477 450.038 164.278 450.038 163.896 450.084C163.513 450.131 162.952 450.225 162.716 450.273C162.48 450.321 162.585 450.321 162.691 450.303C163.1 450.236 163.318 450.179 163.412 450.214C163.672 450.311 163.425 450.908 163.255 451.467C163.022 452.233 162.705 452.715 162.646 452.904C162.537 453.254 162.493 453.552 162.434 453.801C162.419 453.863 162.375 453.93 162.375 453.943C162.373 453.991 162.574 453.779 163.388 453.398C164.065 453.081 165.311 452.585 166.51 452.157C167.709 451.728 168.83 451.401 169.437 451.215C170.044 451.029 170.102 450.994 170.103 450.953C170.104 450.911 170.046 450.865 170.173 450.817C170.598 450.659 171.023 450.651 171.252 450.569C171.949 450.32 172.145 450.073 172.18 450.009C172.258 449.866 171.933 449.813 171.874 449.778C171.845 449.761 171.839 449.72 171.838 449.684C171.85 449.613 171.909 449.531 171.968 449.501C171.98 449.518 171.957 449.599 171.933 449.684" stroke="#2BE831" stroke-width="2" stroke-linecap="round"/>
<path d="M179.876 445.75C178.938 446.167 178.324 446.512 178.075 446.749C177.959 446.859 177.851 446.933 178.188 446.974C179.3 447.106 180.869 446.91 182.066 446.752C182.507 446.693 182.612 446.698 182.522 446.737C182.432 446.776 182.146 446.854 181.307 447.194C180.469 447.534 179.088 448.134 178.168 448.508C177.248 448.882 176.831 449.012 176.538 449.131C176.245 449.25 176.088 449.355 176.62 449.408C178.369 449.585 179.483 449.462 179.181 449.475C179.034 449.481 178.905 449.514 178.903 449.528C178.799 450.235 180.873 449.094 181.166 449.054C181.218 449.047 180.933 449.015 180.005 449.002C177.409 448.964 175.977 448.988 176.463 449.001C176.664 449.007 176.768 449.04 176.73 449.067C176.328 449.351 175.825 449.303 174.655 449.58C174.305 449.663 175.519 449.307 177.793 448.742C179.278 448.373 180.214 448.041 180.768 447.884C180.196 447.541 179.194 447.304 178.826 447.251C178.666 447.225 178.562 447.199 178.296 447.014" stroke="#2BE831" stroke-width="2" stroke-linecap="round"/>
<path d="M177.823 440.775C178.083 440.827 180.042 440.75 181.659 440.996C182.061 441.057 179.159 442.154 178.095 442.583C177.031 443.012 177.265 443.038 177.425 443.039C178.065 443.04 179.682 442.776 180.948 442.697C181.224 442.68 180.754 442.67 180.682 442.67C179.856 442.67 182.398 442.512 182.954 442.447C183.06 442.434 183.165 442.433 183.205 442.394C183.246 442.355 183.22 442.277 183.272 442.198C183.599 441.695 184.532 441.802 185.27 441.736C185.429 441.722 185.534 441.723 185.548 441.71C185.789 441.495 184.592 441.067 184.076 440.854C183.747 440.775 183.275 440.931 182.761 441.208C182.616 441.249 182.433 441.249 182.245 441.249" stroke="#2BE831" stroke-width="2" stroke-linecap="round"/>
<path d="M181.85 438.406C181.693 438.537 181.222 438.747 179.213 439.063C178.616 439.116 178.09 439.325 177.446 439.667C177.166 439.8 176.984 439.852 176.954 439.827" stroke="#2BE831" stroke-width="2" stroke-linecap="round"/>
<path d="M180.824 437.142C180.98 437.194 181.243 437.273 182.262 437.365C183.097 437.44 184.584 437.431 185.389 437.431C186.483 437.432 187.164 437.223 187.653 437.116C187.928 437.038 188.194 436.984 188.391 436.971C188.483 436.958 188.562 436.932 188.642 436.905" stroke="#2BE831" stroke-width="2" stroke-linecap="round"/>
</g>
<defs>
<linearGradient id="paint0_linear_1_2" x1="84.8571" y1="429.786" x2="23.1429" y2="429.786" gradientUnits="userSpaceOnUse">
<stop stop-color="#A9A9A9"/>
<stop offset="1" stop-color="#195C21"/>
</linearGradient>
<linearGradient id="paint1_linear_1_2" x1="26.0373" y1="358.072" x2="58.1943" y2="413.544" gradientUnits="userSpaceOnUse">
<stop stop-color="#195C21"/>
<stop offset="1" stop-color="#A8A8A8"/>
</linearGradient>
<radialGradient id="paint2_radial_1_2" cx="0" cy="0" r="1" gradientTransform="matrix(-80.7358 -22.2606 -3.13699 -71.0419 86.4563 485.269)" gradientUnits="userSpaceOnUse">
<stop stop-color="#A9A9A9"/>
<stop offset="1" stop-color="#195C21"/>
</radialGradient>
<radialGradient id="paint3_radial_1_2" cx="0" cy="0" r="1" gradientTransform="matrix(-73.9527 -19.6216 -2.87344 -62.62 83.6884 485.52)" gradientUnits="userSpaceOnUse">
<stop stop-color="#A9A9A9"/>
<stop offset="1" stop-color="#1A93F2"/>
</radialGradient>
<linearGradient id="paint4_linear_1_2" x1="147" y1="312.851" x2="147" y2="81.0843" gradientUnits="userSpaceOnUse">
<stop stop-color="white"/>
<stop offset="0.524038" stop-color="#D9D9D9"/>
<stop offset="1" stop-color="#86DAEC"/>
</linearGradient>
<linearGradient id="paint5_linear_1_2" x1="56" y1="449.092" x2="56" y2="91.5422" gradientUnits="userSpaceOnUse">
<stop stop-color="#FF3333"/>
<stop offset="0.524038" stop-color="#D9D9D9"/>
<stop offset="1" stop-color="#86DAEC"/>
</linearGradient>
<linearGradient id="paint6_linear_1_2" x1="147.5" y1="110.5" x2="147.5" y2="216.5" gradientUnits="userSpaceOnUse">
<stop stop-color="#FF0707"/>
<stop offset="0.0336538" stop-color="#FF2528" stop-opacity="0.95"/>
<stop offset="1" stop-color="#0B99FF"/>
</linearGradient>
<linearGradient id="paint7_linear_1_2" x1="82.675" y1="462.895" x2="25.975" y2="462.895" gradientUnits="userSpaceOnUse">
<stop stop-color="#A9A9A9"/>
<stop offset="1" stop-color="#1A93F2"/>
</linearGradient>
<radialGradient id="paint8_radial_1_2" cx="0" cy="0" r="1" gradientTransform="matrix(-73.9527 -19.6216 -2.87344 -62.62 83.6884 442.295)" gradientUnits="userSpaceOnUse">
<stop stop-color="#A9A9A9"/>
<stop offset="1" stop-color="#1A93F2"/>
</radialGradient>
<radialGradient id="paint9_radial_1_2" cx="0" cy="0" r="1" gradientTransform="matrix(-37.2142 -9.87391 -1.44596 -31.5114 161.617 378.506)" gradientUnits="userSpaceOnUse">
<stop stop-color="#F5F5F5"/>
<stop offset="1" stop-color="#A9A9A9"/>
</radialGradient>
<linearGradient id="paint10_linear_1_2" x1="167" y1="429" x2="149" y2="414" gradientUnits="userSpaceOnUse">
<stop stop-color="#A9A9A9"/>
<stop offset="1" stop-color="#1992F1"/>
</linearGradient>
<linearGradient id="paint11_linear_1_2" x1="161.338" y1="419.934" x2="132.988" y2="419.934" gradientUnits="userSpaceOnUse">
<stop stop-color="#A9A9A9"/>
<stop offset="1" stop-color="#1A93F2"/>
</linearGradient>
<radialGradient id="paint12_radial_1_2" cx="0" cy="0" r="1" gradientTransform="matrix(-37.2142 -9.87391 -1.44596 -31.5114 161.617 408.506)" gradientUnits="userSpaceOnUse">
<stop stop-color="#A9A9A9"/>
<stop offset="1" stop-color="#1A93F2"/>
</radialGradient>
<linearGradient id="paint13_linear_1_2" x1="142.077" y1="323.5" x2="142.077" y2="334.5" gradientUnits="userSpaceOnUse">
<stop stop-color="#D9D9D9"/>
<stop offset="1" stop-color="#2B95E8"/>
</linearGradient>
<linearGradient id="paint14_linear_1_2" x1="150.077" y1="333.5" x2="150.077" y2="344.5" gradientUnits="userSpaceOnUse">
<stop stop-color="#D9D9D9"/>
<stop offset="1" stop-color="#2B95E8"/>
</linearGradient>
<linearGradient id="paint15_linear_1_2" x1="143.077" y1="348.5" x2="143.077" y2="359.5" gradientUnits="userSpaceOnUse">
<stop stop-color="#D9D9D9"/>
<stop offset="1" stop-color="#2B95E8"/>
</linearGradient>
<linearGradient id="paint16_linear_1_2" x1="150.077" y1="360.5" x2="150.077" y2="371.5" gradientUnits="userSpaceOnUse">
<stop stop-color="#D9D9D9"/>
<stop offset="1" stop-color="#2B95E8"/>
</linearGradient>
<clipPath id="clip0_1_2">
<rect width="213" height="550" fill="white"/>
</clipPath>
</defs>
</svg>
